<svg xmlns="http://www.w3.org/2000/svg" version="1.1" xmlns:xlink="http://www.w3.org/1999/xlink" xmlns:svgjs="http://svgjs.com/svgjs" width="1920" height="1080"><defs id="SvgjsDefs1001"></defs><svg id="SvgjsSvg1002" width="2" height="0" focusable="false" style="overflow:hidden;top:-100%;left:-100%;position:absolute;opacity:0"><polyline id="SvgjsPolyline1003" points="0,0"></polyline><path id="SvgjsPath1004" d="M0 0 "></path></svg><polygon id="SvgjsPolygon1006" points="950.6295941677874,450.9292512086889 1083.324399278971,491.24349762153065 1039.2910460372098,393.7074924707031" fill="#31a884" stroke="#31a884" stroke-width="0.5"></polygon><polygon id="SvgjsPolygon1007" points="950.6295941677874,450.9292512086889 1062.7307377612221,606.2638661660179 1083.324399278971,491.24349762153065" fill="#0f9b85" stroke="#0f9b85" stroke-width="0.5"></polygon><polygon id="SvgjsPolygon1008" points="1193.0319468054606,463.344228649913 1144.1025723741138,371.796494693603 1083.324399278971,491.24349762153065" fill="#32a984" stroke="#32a984" stroke-width="0.5"></polygon><polygon id="SvgjsPolygon1009" points="1083.324399278971,491.24349762153065 1144.1025723741138,371.796494693603 1039.2910460372098,393.7074924707031" fill="#3bad83" stroke="#3bad83" stroke-width="0.5"></polygon><polygon id="SvgjsPolygon1010" points="1240.4140293060527,554.7838937523691 1193.0319468054606,463.344228649913 1083.324399278971,491.24349762153065" fill="#169e85" stroke="#169e85" stroke-width="0.5"></polygon><polygon id="SvgjsPolygon1011" points="1156.2651735659647,264.9758010214825 986.3140002327124,280.45930458061076 1039.2910460372098,393.7074924707031" fill="#65c07d" stroke="#65c07d" stroke-width="0.5"></polygon><polygon id="SvgjsPolygon1012" points="1039.2910460372098,393.7074924707031 986.3140002327124,280.45930458061076 950.6295941677874,450.9292512086889" fill="#4cb581" stroke="#4cb581" stroke-width="0.5"></polygon><polygon id="SvgjsPolygon1013" points="950.6295941677874,450.9292512086889 956.5992859769815,642.3730623276884 1062.7307377612221,606.2638661660179" fill="#009184" stroke="#009184" stroke-width="0.5"></polygon><polygon id="SvgjsPolygon1014" points="878.2914122813534,287.1865665573287 829.8088312337471,381.2542493983666 950.6295941677874,450.9292512086889" fill="#4db681" stroke="#4db681" stroke-width="0.5"></polygon><polygon id="SvgjsPolygon1015" points="950.6295941677874,450.9292512086889 816.9574198346854,517.9684659854366 956.5992859769815,642.3730623276884" fill="#009785" stroke="#009785" stroke-width="0.5"></polygon><polygon id="SvgjsPolygon1016" points="829.8088312337471,381.2542493983666 816.9574198346854,517.9684659854366 950.6295941677874,450.9292512086889" fill="#2fa884" stroke="#2fa884" stroke-width="0.5"></polygon><polygon id="SvgjsPolygon1017" points="986.3140002327124,280.45930458061076 878.2914122813534,287.1865665573287 950.6295941677874,450.9292512086889" fill="#5abc7f" stroke="#5abc7f" stroke-width="0.5"></polygon><polygon id="SvgjsPolygon1018" points="1044.6938826057212,705.2680919388232 1153.635980972318,650.3762935110859 1062.7307377612221,606.2638661660179" fill="#008081" stroke="#008081" stroke-width="0.5"></polygon><polygon id="SvgjsPolygon1019" points="1062.7307377612221,606.2638661660179 1153.635980972318,650.3762935110859 1083.324399278971,491.24349762153065" fill="#008e84" stroke="#008e84" stroke-width="0.5"></polygon><polygon id="SvgjsPolygon1020" points="1287.6062528385883,369.16575548264257 1156.2651735659647,264.9758010214825 1144.1025723741138,371.796494693603" fill="#5cbc7e" stroke="#5cbc7e" stroke-width="0.5"></polygon><polygon id="SvgjsPolygon1021" points="1144.1025723741138,371.796494693603 1156.2651735659647,264.9758010214825 1039.2910460372098,393.7074924707031" fill="#59bb7f" stroke="#59bb7f" stroke-width="0.5"></polygon><polygon id="SvgjsPolygon1022" points="986.3140002327124,280.45930458061076 914.6625960217142,180.15593739827608 878.2914122813534,287.1865665573287" fill="#7fcb78" stroke="#7fcb78" stroke-width="0.5"></polygon><polygon id="SvgjsPolygon1023" points="1153.635980972318,650.3762935110859 1240.4140293060527,554.7838937523691 1083.324399278971,491.24349762153065" fill="#009285" stroke="#009285" stroke-width="0.5"></polygon><polygon id="SvgjsPolygon1024" points="1193.0319468054606,463.344228649913 1287.6062528385883,369.16575548264257 1144.1025723741138,371.796494693603" fill="#42b182" stroke="#42b182" stroke-width="0.5"></polygon><polygon id="SvgjsPolygon1025" points="956.5992859769815,642.3730623276884 1044.6938826057212,705.2680919388232 1062.7307377612221,606.2638661660179" fill="#008181" stroke="#008181" stroke-width="0.5"></polygon><polygon id="SvgjsPolygon1026" points="1156.2651735659647,264.9758010214825 1038.726137855303,188.8039739881793 986.3140002327124,280.45930458061076" fill="#80cc78" stroke="#80cc78" stroke-width="0.5"></polygon><polygon id="SvgjsPolygon1027" points="816.9574198346854,517.9684659854366 849.2686339016705,678.741282987804 956.5992859769815,642.3730623276884" fill="#008883" stroke="#008883" stroke-width="0.5"></polygon><polygon id="SvgjsPolygon1028" points="956.5992859769815,642.3730623276884 958.4107469346845,804.0580177223032 1044.6938826057212,705.2680919388232" fill="#00747b" stroke="#00747b" stroke-width="0.5"></polygon><polygon id="SvgjsPolygon1029" points="1326.8425766013688,467.2059581644383 1287.6062528385883,369.16575548264257 1193.0319468054606,463.344228649913" fill="#36ab84" stroke="#36ab84" stroke-width="0.5"></polygon><polygon id="SvgjsPolygon1030" points="739.8483046822973,264.42474522431996 736.1048659461525,453.1596131655009 829.8088312337471,381.2542493983666" fill="#50b780" stroke="#50b780" stroke-width="0.5"></polygon><polygon id="SvgjsPolygon1031" points="829.8088312337471,381.2542493983666 736.1048659461525,453.1596131655009 816.9574198346854,517.9684659854366" fill="#2ea784" stroke="#2ea784" stroke-width="0.5"></polygon><polygon id="SvgjsPolygon1032" points="816.9574198346854,517.9684659854366 667.2907255083728,603.0032666691246 849.2686339016705,678.741282987804" fill="#008b83" stroke="#008b83" stroke-width="0.5"></polygon><polygon id="SvgjsPolygon1033" points="1038.726137855303,188.8039739881793 914.6625960217142,180.15593739827608 986.3140002327124,280.45930458061076" fill="#8cd075" stroke="#8cd075" stroke-width="0.5"></polygon><polygon id="SvgjsPolygon1034" points="878.2914122813534,287.1865665573287 739.8483046822973,264.42474522431996 829.8088312337471,381.2542493983666" fill="#66c17d" stroke="#66c17d" stroke-width="0.5"></polygon><polygon id="SvgjsPolygon1035" points="1376.8220135312147,588.5149164577115 1326.8425766013688,467.2059581644383 1240.4140293060527,554.7838937523691" fill="#009785" stroke="#009785" stroke-width="0.5"></polygon><polygon id="SvgjsPolygon1036" points="1240.4140293060527,554.7838937523691 1326.8425766013688,467.2059581644383 1193.0319468054606,463.344228649913" fill="#1b9f85" stroke="#1b9f85" stroke-width="0.5"></polygon><polygon id="SvgjsPolygon1037" points="1220.0258349059357,763.1149510871696 1262.6306522473476,656.054091857566 1153.635980972318,650.3762935110859" fill="#00797e" stroke="#00797e" stroke-width="0.5"></polygon><polygon id="SvgjsPolygon1038" points="1153.635980972318,650.3762935110859 1262.6306522473476,656.054091857566 1240.4140293060527,554.7838937523691" fill="#008783" stroke="#008783" stroke-width="0.5"></polygon><polygon id="SvgjsPolygon1039" points="914.6625960217142,180.15593739827608 815.8703806082025,198.49275178674043 878.2914122813534,287.1865665573287" fill="#8ad076" stroke="#8ad076" stroke-width="0.5"></polygon><polygon id="SvgjsPolygon1040" points="815.8703806082025,198.49275178674043 739.8483046822973,264.42474522431996 878.2914122813534,287.1865665573287" fill="#7ecb78" stroke="#7ecb78" stroke-width="0.5"></polygon><polygon id="SvgjsPolygon1041" points="1314.233383798982,248.2365718006773 1208.8490402504585,174.89119913957836 1156.2651735659647,264.9758010214825" fill="#87ce77" stroke="#87ce77" stroke-width="0.5"></polygon><polygon id="SvgjsPolygon1042" points="1156.2651735659647,264.9758010214825 1208.8490402504585,174.89119913957836 1038.726137855303,188.8039739881793" fill="#8fd275" stroke="#8fd275" stroke-width="0.5"></polygon><polygon id="SvgjsPolygon1043" points="1038.726137855303,188.8039739881793 1021.7313311319419,70.54862377165058 914.6625960217142,180.15593739827608" fill="#aadb70" stroke="#aadb70" stroke-width="0.5"></polygon><polygon id="SvgjsPolygon1044" points="849.2686339016705,678.741282987804 958.4107469346845,804.0580177223032 956.5992859769815,642.3730623276884" fill="#00767c" stroke="#00767c" stroke-width="0.5"></polygon><polygon id="SvgjsPolygon1045" points="1104.4788780176439,825.8406209359953 1220.0258349059357,763.1149510871696 1153.635980972318,650.3762935110859" fill="#006e78" stroke="#006e78" stroke-width="0.5"></polygon><polygon id="SvgjsPolygon1046" points="1104.4788780176439,825.8406209359953 1153.635980972318,650.3762935110859 1044.6938826057212,705.2680919388232" fill="#00727a" stroke="#00727a" stroke-width="0.5"></polygon><polygon id="SvgjsPolygon1047" points="1287.6062528385883,369.16575548264257 1314.233383798982,248.2365718006773 1156.2651735659647,264.9758010214825" fill="#6cc47c" stroke="#6cc47c" stroke-width="0.5"></polygon><polygon id="SvgjsPolygon1048" points="1405.8842601946515,354.48684992150316 1314.233383798982,248.2365718006773 1287.6062528385883,369.16575548264257" fill="#60be7e" stroke="#60be7e" stroke-width="0.5"></polygon><polygon id="SvgjsPolygon1049" points="958.4107469346845,804.0580177223032 1104.4788780176439,825.8406209359953 1044.6938826057212,705.2680919388232" fill="#006874" stroke="#006874" stroke-width="0.5"></polygon><polygon id="SvgjsPolygon1050" points="1262.6306522473476,656.054091857566 1376.8220135312147,588.5149164577115 1240.4140293060527,554.7838937523691" fill="#008b83" stroke="#008b83" stroke-width="0.5"></polygon><polygon id="SvgjsPolygon1051" points="1326.8425766013688,467.2059581644383 1405.8842601946515,354.48684992150316 1287.6062528385883,369.16575548264257" fill="#44b182" stroke="#44b182" stroke-width="0.5"></polygon><polygon id="SvgjsPolygon1052" points="1440.4838537070634,674.376144414942 1376.8220135312147,588.5149164577115 1262.6306522473476,656.054091857566" fill="#008381" stroke="#008381" stroke-width="0.5"></polygon><polygon id="SvgjsPolygon1053" points="592.1335097252395,522.2810417248593 667.2907255083728,603.0032666691246 736.1048659461525,453.1596131655009" fill="#079985" stroke="#079985" stroke-width="0.5"></polygon><polygon id="SvgjsPolygon1054" points="736.1048659461525,453.1596131655009 667.2907255083728,603.0032666691246 816.9574198346854,517.9684659854366" fill="#089985" stroke="#089985" stroke-width="0.5"></polygon><polygon id="SvgjsPolygon1055" points="849.2686339016705,678.741282987804 849.0552915605193,832.4944015354414 958.4107469346845,804.0580177223032" fill="#006975" stroke="#006975" stroke-width="0.5"></polygon><polygon id="SvgjsPolygon1056" points="1153.661108682854,72.71265067010933 1021.7313311319419,70.54862377165058 1038.726137855303,188.8039739881793" fill="#bae06d" stroke="#bae06d" stroke-width="0.5"></polygon><polygon id="SvgjsPolygon1057" points="914.6625960217142,180.15593739827608 850.4287798383762,63.01363082434044 815.8703806082025,198.49275178674043" fill="#aadb70" stroke="#aadb70" stroke-width="0.5"></polygon><polygon id="SvgjsPolygon1058" points="641.7459303499201,306.77339205528824 629.6923826508182,422.8535836280235 736.1048659461525,453.1596131655009" fill="#45b282" stroke="#45b282" stroke-width="0.5"></polygon><polygon id="SvgjsPolygon1059" points="1508.7182946677726,459.3192481396034 1405.8842601946515,354.48684992150316 1326.8425766013688,467.2059581644383" fill="#38ac83" stroke="#38ac83" stroke-width="0.5"></polygon><polygon id="SvgjsPolygon1060" points="739.8483046822973,264.42474522431996 641.7459303499201,306.77339205528824 736.1048659461525,453.1596131655009" fill="#5abb7f" stroke="#5abb7f" stroke-width="0.5"></polygon><polygon id="SvgjsPolygon1061" points="638.3747295900577,204.78788378544266 641.7459303499201,306.77339205528824 739.8483046822973,264.42474522431996" fill="#7bca79" stroke="#7bca79" stroke-width="0.5"></polygon><polygon id="SvgjsPolygon1062" points="701.6666387452104,749.3740348211936 849.0552915605193,832.4944015354414 849.2686339016705,678.741282987804" fill="#006d77" stroke="#006d77" stroke-width="0.5"></polygon><polygon id="SvgjsPolygon1063" points="958.4107469346845,804.0580177223032 1035.621053888888,902.6166046253821 1104.4788780176439,825.8406209359953" fill="#085b6b" stroke="#085b6b" stroke-width="0.5"></polygon><polygon id="SvgjsPolygon1064" points="1208.8490402504585,174.89119913957836 1153.661108682854,72.71265067010933 1038.726137855303,188.8039739881793" fill="#abdb70" stroke="#abdb70" stroke-width="0.5"></polygon><polygon id="SvgjsPolygon1065" points="1243.5331575518967,22.601585737644626 1153.661108682854,72.71265067010933 1208.8490402504585,174.89119913957836" fill="#c4e36c" stroke="#c4e36c" stroke-width="0.5"></polygon><polygon id="SvgjsPolygon1066" points="667.2907255083728,603.0032666691246 701.6666387452104,749.3740348211936 849.2686339016705,678.741282987804" fill="#007c7f" stroke="#007c7f" stroke-width="0.5"></polygon><polygon id="SvgjsPolygon1067" points="629.6923826508182,422.8535836280235 592.1335097252395,522.2810417248593 736.1048659461525,453.1596131655009" fill="#28a584" stroke="#28a584" stroke-width="0.5"></polygon><polygon id="SvgjsPolygon1068" points="667.2907255083728,603.0032666691246 577.6047013798882,648.103201017514 701.6666387452104,749.3740348211936" fill="#007e80" stroke="#007e80" stroke-width="0.5"></polygon><polygon id="SvgjsPolygon1069" points="538.9641049457289,366.64058693868054 592.1335097252395,522.2810417248593 629.6923826508182,422.8535836280235" fill="#34aa84" stroke="#34aa84" stroke-width="0.5"></polygon><polygon id="SvgjsPolygon1070" points="710.3041406033367,1.5436820521560293 850.4287798383762,63.01363082434044 1021.7313311319419,70.54862377165058" fill="#d9e96a" stroke="#d9e96a" stroke-width="0.5"></polygon><polygon id="SvgjsPolygon1071" points="1021.7313311319419,70.54862377165058 850.4287798383762,63.01363082434044 914.6625960217142,180.15593739827608" fill="#bde16d" stroke="#bde16d" stroke-width="0.5"></polygon><polygon id="SvgjsPolygon1072" points="815.8703806082025,198.49275178674043 738.9604346092168,101.29231969849513 739.8483046822973,264.42474522431996" fill="#98d573" stroke="#98d573" stroke-width="0.5"></polygon><polygon id="SvgjsPolygon1073" points="938.2135750963108,949.6054396877756 1035.621053888888,902.6166046253821 958.4107469346845,804.0580177223032" fill="#135464" stroke="#135464" stroke-width="0.5"></polygon><polygon id="SvgjsPolygon1074" points="1104.4788780176439,825.8406209359953 1191.951980507491,909.6231916065075 1220.0258349059357,763.1149510871696" fill="#045e6d" stroke="#045e6d" stroke-width="0.5"></polygon><polygon id="SvgjsPolygon1075" points="850.4287798383762,63.01363082434044 738.9604346092168,101.29231969849513 815.8703806082025,198.49275178674043" fill="#b6df6e" stroke="#b6df6e" stroke-width="0.5"></polygon><polygon id="SvgjsPolygon1076" points="738.9604346092168,101.29231969849513 638.3747295900577,204.78788378544266 739.8483046822973,264.42474522431996" fill="#97d573" stroke="#97d573" stroke-width="0.5"></polygon><polygon id="SvgjsPolygon1077" points="641.7459303499201,306.77339205528824 538.9641049457289,366.64058693868054 629.6923826508182,422.8535836280235" fill="#50b780" stroke="#50b780" stroke-width="0.5"></polygon><polygon id="SvgjsPolygon1078" points="1401.6358063844616,786.6612169070629 1262.6306522473476,656.054091857566 1220.0258349059357,763.1149510871696" fill="#00707a" stroke="#00707a" stroke-width="0.5"></polygon><polygon id="SvgjsPolygon1079" points="1401.6358063844616,786.6612169070629 1440.4838537070634,674.376144414942 1262.6306522473476,656.054091857566" fill="#00767c" stroke="#00767c" stroke-width="0.5"></polygon><polygon id="SvgjsPolygon1080" points="1376.8220135312147,588.5149164577115 1508.7182946677726,459.3192481396034 1326.8425766013688,467.2059581644383" fill="#159d85" stroke="#159d85" stroke-width="0.5"></polygon><polygon id="SvgjsPolygon1081" points="592.1335097252395,522.2810417248593 577.6047013798882,648.103201017514 667.2907255083728,603.0032666691246" fill="#008d84" stroke="#008d84" stroke-width="0.5"></polygon><polygon id="SvgjsPolygon1082" points="1035.621053888888,902.6166046253821 1191.951980507491,909.6231916065075 1104.4788780176439,825.8406209359953" fill="#125565" stroke="#125565" stroke-width="0.5"></polygon><polygon id="SvgjsPolygon1083" points="1191.951980507491,909.6231916065075 1311.6247507294236,843.6957865335362 1220.0258349059357,763.1149510871696" fill="#065c6c" stroke="#065c6c" stroke-width="0.5"></polygon><polygon id="SvgjsPolygon1084" points="1574.1798649271134,610.4597968425273 1508.7182946677726,459.3192481396034 1376.8220135312147,588.5149164577115" fill="#009485" stroke="#009485" stroke-width="0.5"></polygon><polygon id="SvgjsPolygon1085" points="1331.2687355510873,77.97479010997003 1208.8490402504585,174.89119913957836 1314.233383798982,248.2365718006773" fill="#a1d872" stroke="#a1d872" stroke-width="0.5"></polygon><polygon id="SvgjsPolygon1086" points="1331.2687355510873,77.97479010997003 1243.5331575518967,22.601585737644626 1208.8490402504585,174.89119913957836" fill="#c3e36c" stroke="#c3e36c" stroke-width="0.5"></polygon><polygon id="SvgjsPolygon1087" points="545.6818644057564,257.2816614619675 538.9641049457289,366.64058693868054 641.7459303499201,306.77339205528824" fill="#66c17d" stroke="#66c17d" stroke-width="0.5"></polygon><polygon id="SvgjsPolygon1088" points="592.1335097252395,522.2810417248593 491.31445818571956,567.8400782880061 577.6047013798882,648.103201017514" fill="#008f84" stroke="#008f84" stroke-width="0.5"></polygon><polygon id="SvgjsPolygon1089" points="1331.2687355510873,77.97479010997003 1314.233383798982,248.2365718006773 1472.6765532106301,164.63321679174805" fill="#a3d971" stroke="#a3d971" stroke-width="0.5"></polygon><polygon id="SvgjsPolygon1090" points="1153.661108682854,72.71265067010933 1243.5331575518967,22.601585737644626 1021.7313311319419,70.54862377165058" fill="#d4e76a" stroke="#d4e76a" stroke-width="0.5"></polygon><polygon id="SvgjsPolygon1091" points="1506.4380242682594,276.2509227415532 1314.233383798982,248.2365718006773 1405.8842601946515,354.48684992150316" fill="#6dc47b" stroke="#6dc47b" stroke-width="0.5"></polygon><polygon id="SvgjsPolygon1092" points="773.306767928271,918.0379267770862 938.2135750963108,949.6054396877756 849.0552915605193,832.4944015354414" fill="#155162" stroke="#155162" stroke-width="0.5"></polygon><polygon id="SvgjsPolygon1093" points="849.0552915605193,832.4944015354414 938.2135750963108,949.6054396877756 958.4107469346845,804.0580177223032" fill="#0e5868" stroke="#0e5868" stroke-width="0.5"></polygon><polygon id="SvgjsPolygon1094" points="1035.621053888888,902.6166046253821 1090.2157944027108,1022.4295133654525 1191.951980507491,909.6231916065075" fill="#1b495a" stroke="#1b495a" stroke-width="0.5"></polygon><polygon id="SvgjsPolygon1095" points="773.306767928271,918.0379267770862 849.0552915605193,832.4944015354414 678.3016299212354,859.8326789869542" fill="#105667" stroke="#105667" stroke-width="0.5"></polygon><polygon id="SvgjsPolygon1096" points="1311.6247507294236,843.6957865335362 1401.6358063844616,786.6612169070629 1220.0258349059357,763.1149510871696" fill="#006472" stroke="#006472" stroke-width="0.5"></polygon><polygon id="SvgjsPolygon1097" points="638.3747295900577,204.78788378544266 545.6818644057564,257.2816614619675 641.7459303499201,306.77339205528824" fill="#7cca79" stroke="#7cca79" stroke-width="0.5"></polygon><polygon id="SvgjsPolygon1098" points="470.9540909596058,116.38208459040027 545.6818644057564,257.2816614619675 638.3747295900577,204.78788378544266" fill="#96d474" stroke="#96d474" stroke-width="0.5"></polygon><polygon id="SvgjsPolygon1099" points="678.3016299212354,859.8326789869542 849.0552915605193,832.4944015354414 701.6666387452104,749.3740348211936" fill="#006170" stroke="#006170" stroke-width="0.5"></polygon><polygon id="SvgjsPolygon1100" points="1508.7182946677726,459.3192481396034 1506.4380242682594,276.2509227415532 1405.8842601946515,354.48684992150316" fill="#51b780" stroke="#51b780" stroke-width="0.5"></polygon><polygon id="SvgjsPolygon1101" points="577.6047013798882,648.103201017514 597.9407124954615,773.46090165323 701.6666387452104,749.3740348211936" fill="#00737b" stroke="#00737b" stroke-width="0.5"></polygon><polygon id="SvgjsPolygon1102" points="597.9407124954615,773.46090165323 678.3016299212354,859.8326789869542 701.6666387452104,749.3740348211936" fill="#006572" stroke="#006572" stroke-width="0.5"></polygon><polygon id="SvgjsPolygon1103" points="710.3041406033367,1.5436820521560293 633.5304745905867,101.48436357787878 738.9604346092168,101.29231969849513" fill="#cee66b" stroke="#cee66b" stroke-width="0.5"></polygon><polygon id="SvgjsPolygon1104" points="738.9604346092168,101.29231969849513 633.5304745905867,101.48436357787878 638.3747295900577,204.78788378544266" fill="#afdd6f" stroke="#afdd6f" stroke-width="0.5"></polygon><polygon id="SvgjsPolygon1105" points="465.8521160290611,437.7059470044742 491.31445818571956,567.8400782880061 592.1335097252395,522.2810417248593" fill="#139c85" stroke="#139c85" stroke-width="0.5"></polygon><polygon id="SvgjsPolygon1106" points="577.6047013798882,648.103201017514 498.616381560716,725.0223778421944 597.9407124954615,773.46090165323" fill="#00747c" stroke="#00747c" stroke-width="0.5"></polygon><polygon id="SvgjsPolygon1107" points="465.8521160290611,437.7059470044742 592.1335097252395,522.2810417248593 538.9641049457289,366.64058693868054" fill="#32a984" stroke="#32a984" stroke-width="0.5"></polygon><polygon id="SvgjsPolygon1108" points="1506.4380242682594,276.2509227415532 1472.6765532106301,164.63321679174805 1314.233383798982,248.2365718006773" fill="#87ce77" stroke="#87ce77" stroke-width="0.5"></polygon><polygon id="SvgjsPolygon1109" points="1331.2687355510873,77.97479010997003 1529.2158419402342,28.10149087330919 1243.5331575518967,22.601585737644626" fill="#dae96a" stroke="#dae96a" stroke-width="0.5"></polygon><polygon id="SvgjsPolygon1110" points="1191.951980507491,909.6231916065075 1287.4109927792974,945.5878755746186 1311.6247507294236,843.6957865335362" fill="#155162" stroke="#155162" stroke-width="0.5"></polygon><polygon id="SvgjsPolygon1111" points="1311.6247507294236,843.6957865335362 1469.381689187961,935.174087977752 1401.6358063844616,786.6612169070629" fill="#0c5969" stroke="#0c5969" stroke-width="0.5"></polygon><polygon id="SvgjsPolygon1112" points="1253.042581572486,1041.6880846404806 1287.4109927792974,945.5878755746186 1191.951980507491,909.6231916065075" fill="#1d4556" stroke="#1d4556" stroke-width="0.5"></polygon><polygon id="SvgjsPolygon1113" points="850.4287798383762,63.01363082434044 710.3041406033367,1.5436820521560293 738.9604346092168,101.29231969849513" fill="#d4e76a" stroke="#d4e76a" stroke-width="0.5"></polygon><polygon id="SvgjsPolygon1114" points="1243.5331575518967,22.601585737644626 710.3041406033367,1.5436820521560293 1021.7313311319419,70.54862377165058" fill="#e0ea6a" stroke="#e0ea6a" stroke-width="0.5"></polygon><polygon id="SvgjsPolygon1115" points="432.881225734439,248.80612081288234 465.8521160290611,437.7059470044742 538.9641049457289,366.64058693868054" fill="#56ba7f" stroke="#56ba7f" stroke-width="0.5"></polygon><polygon id="SvgjsPolygon1116" points="970.1247423622111,1076.231948810875 1090.2157944027108,1022.4295133654525 938.2135750963108,949.6054396877756" fill="#203c4b" stroke="#203c4b" stroke-width="0.5"></polygon><polygon id="SvgjsPolygon1117" points="938.2135750963108,949.6054396877756 1090.2157944027108,1022.4295133654525 1035.621053888888,902.6166046253821" fill="#1d4657" stroke="#1d4657" stroke-width="0.5"></polygon><polygon id="SvgjsPolygon1118" points="1528.2420356900234,774.9012159209669 1440.4838537070634,674.376144414942 1401.6358063844616,786.6612169070629" fill="#006e78" stroke="#006e78" stroke-width="0.5"></polygon><polygon id="SvgjsPolygon1119" points="1528.2420356900234,774.9012159209669 1574.1798649271134,610.4597968425273 1440.4838537070634,674.376144414942" fill="#007a7e" stroke="#007a7e" stroke-width="0.5"></polygon><polygon id="SvgjsPolygon1120" points="1440.4838537070634,674.376144414942 1574.1798649271134,610.4597968425273 1376.8220135312147,588.5149164577115" fill="#008682" stroke="#008682" stroke-width="0.5"></polygon><polygon id="SvgjsPolygon1121" points="1508.7182946677726,459.3192481396034 1592.7223020390131,379.012711293427 1506.4380242682594,276.2509227415532" fill="#4eb681" stroke="#4eb681" stroke-width="0.5"></polygon><polygon id="SvgjsPolygon1122" points="1681.68501447538,476.9853518736645 1592.7223020390131,379.012711293427 1508.7182946677726,459.3192481396034" fill="#33aa84" stroke="#33aa84" stroke-width="0.5"></polygon><polygon id="SvgjsPolygon1123" points="1506.4380242682594,276.2509227415532 1575.3135062853344,175.62823215265388 1472.6765532106301,164.63321679174805" fill="#91d275" stroke="#91d275" stroke-width="0.5"></polygon><polygon id="SvgjsPolygon1124" points="356.2728691209415,675.711739148324 498.616381560716,725.0223778421944 491.31445818571956,567.8400782880061" fill="#008080" stroke="#008080" stroke-width="0.5"></polygon><polygon id="SvgjsPolygon1125" points="491.31445818571956,567.8400782880061 498.616381560716,725.0223778421944 577.6047013798882,648.103201017514" fill="#008281" stroke="#008281" stroke-width="0.5"></polygon><polygon id="SvgjsPolygon1126" points="597.9407124954615,773.46090165323 516.3575238391536,869.6739545759272 678.3016299212354,859.8326789869542" fill="#055d6d" stroke="#055d6d" stroke-width="0.5"></polygon><polygon id="SvgjsPolygon1127" points="1469.381689187961,935.174087977752 1528.2420356900234,774.9012159209669 1401.6358063844616,786.6612169070629" fill="#045e6d" stroke="#045e6d" stroke-width="0.5"></polygon><polygon id="SvgjsPolygon1128" points="582.852264656443,949.2342411741671 773.306767928271,918.0379267770862 678.3016299212354,859.8326789869542" fill="#174f60" stroke="#174f60" stroke-width="0.5"></polygon><polygon id="SvgjsPolygon1129" points="625.3478030599431,1061.4199036582368 808.2853217278391,1024.489641849216 773.306767928271,918.0379267770862" fill="#203e4e" stroke="#203e4e" stroke-width="0.5"></polygon><polygon id="SvgjsPolygon1130" points="773.306767928271,918.0379267770862 808.2853217278391,1024.489641849216 938.2135750963108,949.6054396877756" fill="#1d4556" stroke="#1d4556" stroke-width="0.5"></polygon><polygon id="SvgjsPolygon1131" points="808.2853217278391,1024.489641849216 970.1247423622111,1076.231948810875 938.2135750963108,949.6054396877756" fill="#203c4b" stroke="#203c4b" stroke-width="0.5"></polygon><polygon id="SvgjsPolygon1132" points="1090.2157944027108,1022.4295133654525 1253.042581572486,1041.6880846404806 1191.951980507491,909.6231916065075" fill="#1f4050" stroke="#1f4050" stroke-width="0.5"></polygon><polygon id="SvgjsPolygon1133" points="545.6818644057564,257.2816614619675 432.881225734439,248.80612081288234 538.9641049457289,366.64058693868054" fill="#6ec47b" stroke="#6ec47b" stroke-width="0.5"></polygon><polygon id="SvgjsPolygon1134" points="465.8521160290611,437.7059470044742 363.25190414729116,572.21678199815 491.31445818571956,567.8400782880061" fill="#079985" stroke="#079985" stroke-width="0.5"></polygon><polygon id="SvgjsPolygon1135" points="470.9540909596058,116.38208459040027 432.881225734439,248.80612081288234 545.6818644057564,257.2816614619675" fill="#90d275" stroke="#90d275" stroke-width="0.5"></polygon><polygon id="SvgjsPolygon1136" points="470.9540909596058,116.38208459040027 638.3747295900577,204.78788378544266 633.5304745905867,101.48436357787878" fill="#addc70" stroke="#addc70" stroke-width="0.5"></polygon><polygon id="SvgjsPolygon1137" points="1472.6765532106301,164.63321679174805 1529.2158419402342,28.10149087330919 1331.2687355510873,77.97479010997003" fill="#c4e36c" stroke="#c4e36c" stroke-width="0.5"></polygon><polygon id="SvgjsPolygon1138" points="1635.687853218918,262.9140012020758 1575.3135062853344,175.62823215265388 1506.4380242682594,276.2509227415532" fill="#83cd77" stroke="#83cd77" stroke-width="0.5"></polygon><polygon id="SvgjsPolygon1139" points="970.1247423622111,1076.231948810875 1253.042581572486,1041.6880846404806 1090.2157944027108,1022.4295133654525" fill="#213745" stroke="#213745" stroke-width="0.5"></polygon><polygon id="SvgjsPolygon1140" points="1287.4109927792974,945.5878755746186 1469.381689187961,935.174087977752 1311.6247507294236,843.6957865335362" fill="#174f60" stroke="#174f60" stroke-width="0.5"></polygon><polygon id="SvgjsPolygon1141" points="710.3041406033367,1.5436820521560293 591.2156592639337,0.7185758227785044 633.5304745905867,101.48436357787878" fill="#deea6a" stroke="#deea6a" stroke-width="0.5"></polygon><polygon id="SvgjsPolygon1142" points="1743.1856278524872,378.73671242436643 1635.687853218918,262.9140012020758 1592.7223020390131,379.012711293427" fill="#5abc7f" stroke="#5abc7f" stroke-width="0.5"></polygon><polygon id="SvgjsPolygon1143" points="1592.7223020390131,379.012711293427 1635.687853218918,262.9140012020758 1506.4380242682594,276.2509227415532" fill="#68c27c" stroke="#68c27c" stroke-width="0.5"></polygon><polygon id="SvgjsPolygon1144" points="591.2156592639337,0.7185758227785044 470.9540909596058,116.38208459040027 633.5304745905867,101.48436357787878" fill="#cce56b" stroke="#cce56b" stroke-width="0.5"></polygon><polygon id="SvgjsPolygon1145" points="428.80074363663215,804.4246436286627 516.3575238391536,869.6739545759272 498.616381560716,725.0223778421944" fill="#006472" stroke="#006472" stroke-width="0.5"></polygon><polygon id="SvgjsPolygon1146" points="498.616381560716,725.0223778421944 516.3575238391536,869.6739545759272 597.9407124954615,773.46090165323" fill="#006673" stroke="#006673" stroke-width="0.5"></polygon><polygon id="SvgjsPolygon1147" points="1369.402195661224,1026.415098943446 1469.381689187961,935.174087977752 1287.4109927792974,945.5878755746186" fill="#1d4455" stroke="#1d4455" stroke-width="0.5"></polygon><polygon id="SvgjsPolygon1148" points="516.3575238391536,869.6739545759272 582.852264656443,949.2342411741671 678.3016299212354,859.8326789869542" fill="#145263" stroke="#145263" stroke-width="0.5"></polygon><polygon id="SvgjsPolygon1149" points="1678.3989077145065,665.7342631016628 1681.68501447538,476.9853518736645 1574.1798649271134,610.4597968425273" fill="#008e84" stroke="#008e84" stroke-width="0.5"></polygon><polygon id="SvgjsPolygon1150" points="1574.1798649271134,610.4597968425273 1681.68501447538,476.9853518736645 1508.7182946677726,459.3192481396034" fill="#0f9b85" stroke="#0f9b85" stroke-width="0.5"></polygon><polygon id="SvgjsPolygon1151" points="1627.2518091478175,757.0100514381422 1574.1798649271134,610.4597968425273 1528.2420356900234,774.9012159209669" fill="#00757c" stroke="#00757c" stroke-width="0.5"></polygon><polygon id="SvgjsPolygon1152" points="1253.042581572486,1041.6880846404806 1369.402195661224,1026.415098943446 1287.4109927792974,945.5878755746186" fill="#203e4e" stroke="#203e4e" stroke-width="0.5"></polygon><polygon id="SvgjsPolygon1153" points="353.56282344263815,401.80397751839394 363.25190414729116,572.21678199815 465.8521160290611,437.7059470044742" fill="#26a485" stroke="#26a485" stroke-width="0.5"></polygon><polygon id="SvgjsPolygon1154" points="1658.2370742800213,116.04144617867394 1529.2158419402342,28.10149087330919 1575.3135062853344,175.62823215265388" fill="#bce16d" stroke="#bce16d" stroke-width="0.5"></polygon><polygon id="SvgjsPolygon1155" points="1575.3135062853344,175.62823215265388 1529.2158419402342,28.10149087330919 1472.6765532106301,164.63321679174805" fill="#b5de6e" stroke="#b5de6e" stroke-width="0.5"></polygon><polygon id="SvgjsPolygon1156" points="1243.5331575518967,22.601585737644626 1708.5671233490211,17.498146094023127 710.3041406033367,1.5436820521560293" fill="#e8ec69" stroke="#e8ec69" stroke-width="0.5"></polygon><polygon id="SvgjsPolygon1157" points="245.48679579693658,288.13365460087124 353.56282344263815,401.80397751839394 432.881225734439,248.80612081288234" fill="#65c07d" stroke="#65c07d" stroke-width="0.5"></polygon><polygon id="SvgjsPolygon1158" points="432.881225734439,248.80612081288234 353.56282344263815,401.80397751839394 465.8521160290611,437.7059470044742" fill="#51b880" stroke="#51b880" stroke-width="0.5"></polygon><polygon id="SvgjsPolygon1159" points="1567.5770782922937,895.4340305574646 1627.2518091478175,757.0100514381422 1528.2420356900234,774.9012159209669" fill="#006270" stroke="#006270" stroke-width="0.5"></polygon><polygon id="SvgjsPolygon1160" points="356.2728691209415,675.711739148324 428.80074363663215,804.4246436286627 498.616381560716,725.0223778421944" fill="#00707a" stroke="#00707a" stroke-width="0.5"></polygon><polygon id="SvgjsPolygon1161" points="480.3028148659304,987.2213496322554 625.3478030599431,1061.4199036582368 582.852264656443,949.2342411741671" fill="#1f3f4f" stroke="#1f3f4f" stroke-width="0.5"></polygon><polygon id="SvgjsPolygon1162" points="1627.2518091478175,757.0100514381422 1678.3989077145065,665.7342631016628 1574.1798649271134,610.4597968425273" fill="#007c7f" stroke="#007c7f" stroke-width="0.5"></polygon><polygon id="SvgjsPolygon1163" points="258.1050836579569,624.2765852545677 356.2728691209415,675.711739148324 363.25190414729116,572.21678199815" fill="#008682" stroke="#008682" stroke-width="0.5"></polygon><polygon id="SvgjsPolygon1164" points="363.25190414729116,572.21678199815 356.2728691209415,675.711739148324 491.31445818571956,567.8400782880061" fill="#008a83" stroke="#008a83" stroke-width="0.5"></polygon><polygon id="SvgjsPolygon1165" points="1560.224759143139,1039.5345298691811 1567.5770782922937,895.4340305574646 1469.381689187961,935.174087977752" fill="#1c4657" stroke="#1c4657" stroke-width="0.5"></polygon><polygon id="SvgjsPolygon1166" points="1469.381689187961,935.174087977752 1567.5770782922937,895.4340305574646 1528.2420356900234,774.9012159209669" fill="#0f5767" stroke="#0f5767" stroke-width="0.5"></polygon><polygon id="SvgjsPolygon1167" points="1783.2418203459313,722.8315976484228 1766.353019921585,573.7799416513963 1678.3989077145065,665.7342631016628" fill="#008081" stroke="#008081" stroke-width="0.5"></polygon><polygon id="SvgjsPolygon1168" points="591.2156592639337,0.7185758227785044 486.139964049692,8.574824859287286 470.9540909596058,116.38208459040027" fill="#dbe96a" stroke="#dbe96a" stroke-width="0.5"></polygon><polygon id="SvgjsPolygon1169" points="470.9540909596058,116.38208459040027 330.295173301586,183.72848121914 432.881225734439,248.80612081288234" fill="#9ad673" stroke="#9ad673" stroke-width="0.5"></polygon><polygon id="SvgjsPolygon1170" points="480.3028148659304,987.2213496322554 582.852264656443,949.2342411741671 516.3575238391536,869.6739545759272" fill="#1a4a5b" stroke="#1a4a5b" stroke-width="0.5"></polygon><polygon id="SvgjsPolygon1171" points="582.852264656443,949.2342411741671 625.3478030599431,1061.4199036582368 773.306767928271,918.0379267770862" fill="#1e4353" stroke="#1e4353" stroke-width="0.5"></polygon><polygon id="SvgjsPolygon1172" points="808.2853217278391,1024.489641849216 625.3478030599431,1061.4199036582368 970.1247423622111,1076.231948810875" fill="#213544" stroke="#213544" stroke-width="0.5"></polygon><polygon id="SvgjsPolygon1173" points="1635.687853218918,262.9140012020758 1658.2370742800213,116.04144617867394 1575.3135062853344,175.62823215265388" fill="#9ad573" stroke="#9ad573" stroke-width="0.5"></polygon><polygon id="SvgjsPolygon1174" points="1764.4309101847225,175.56126175728184 1658.2370742800213,116.04144617867394 1635.687853218918,262.9140012020758" fill="#9ad573" stroke="#9ad573" stroke-width="0.5"></polygon><polygon id="SvgjsPolygon1175" points="1826.289107717264,490.93531586430777 1743.1856278524872,378.73671242436643 1681.68501447538,476.9853518736645" fill="#2fa884" stroke="#2fa884" stroke-width="0.5"></polygon><polygon id="SvgjsPolygon1176" points="1681.68501447538,476.9853518736645 1743.1856278524872,378.73671242436643 1592.7223020390131,379.012711293427" fill="#3eaf83" stroke="#3eaf83" stroke-width="0.5"></polygon><polygon id="SvgjsPolygon1177" points="331.2422036332222,37.38386781006125 330.295173301586,183.72848121914 470.9540909596058,116.38208459040027" fill="#bae06e" stroke="#bae06e" stroke-width="0.5"></polygon><polygon id="SvgjsPolygon1178" points="353.56282344263815,401.80397751839394 234.63930420278382,515.2077886031801 363.25190414729116,572.21678199815" fill="#1a9f85" stroke="#1a9f85" stroke-width="0.5"></polygon><polygon id="SvgjsPolygon1179" points="339.7483009628959,943.0817852266397 516.3575238391536,869.6739545759272 428.80074363663215,804.4246436286627" fill="#105667" stroke="#105667" stroke-width="0.5"></polygon><polygon id="SvgjsPolygon1180" points="339.7483009628959,943.0817852266397 480.3028148659304,987.2213496322554 516.3575238391536,869.6739545759272" fill="#1a4b5c" stroke="#1a4b5c" stroke-width="0.5"></polygon><polygon id="SvgjsPolygon1181" points="1728.2399020635712,808.4340305775615 1678.3989077145065,665.7342631016628 1627.2518091478175,757.0100514381422" fill="#006f79" stroke="#006f79" stroke-width="0.5"></polygon><polygon id="SvgjsPolygon1182" points="1678.3989077145065,665.7342631016628 1766.353019921585,573.7799416513963 1681.68501447538,476.9853518736645" fill="#009084" stroke="#009084" stroke-width="0.5"></polygon><polygon id="SvgjsPolygon1183" points="1369.402195661224,1026.415098943446 1464.4957564849906,1073.591896366976 1469.381689187961,935.174087977752" fill="#203d4c" stroke="#203d4c" stroke-width="0.5"></polygon><polygon id="SvgjsPolygon1184" points="1682.5182168317294,903.7877890559398 1728.2399020635712,808.4340305775615 1627.2518091478175,757.0100514381422" fill="#015f6e" stroke="#015f6e" stroke-width="0.5"></polygon><polygon id="SvgjsPolygon1185" points="1253.042581572486,1041.6880846404806 1464.4957564849906,1073.591896366976 1369.402195661224,1026.415098943446" fill="#213645" stroke="#213645" stroke-width="0.5"></polygon><polygon id="SvgjsPolygon1186" points="970.1247423622111,1076.231948810875 1464.4957564849906,1073.591896366976 1253.042581572486,1041.6880846404806" fill="#213441" stroke="#213441" stroke-width="0.5"></polygon><polygon id="SvgjsPolygon1187" points="245.48679579693658,288.13365460087124 251.11234607007108,395.7503216630363 353.56282344263815,401.80397751839394" fill="#52b880" stroke="#52b880" stroke-width="0.5"></polygon><polygon id="SvgjsPolygon1188" points="234.63930420278382,515.2077886031801 258.1050836579569,624.2765852545677 363.25190414729116,572.21678199815" fill="#009184" stroke="#009184" stroke-width="0.5"></polygon><polygon id="SvgjsPolygon1189" points="356.2728691209415,675.711739148324 285.3458959840116,768.9752356313884 428.80074363663215,804.4246436286627" fill="#006e78" stroke="#006e78" stroke-width="0.5"></polygon><polygon id="SvgjsPolygon1190" points="251.11234607007108,395.7503216630363 234.63930420278382,515.2077886031801 353.56282344263815,401.80397751839394" fill="#34aa84" stroke="#34aa84" stroke-width="0.5"></polygon><polygon id="SvgjsPolygon1191" points="1682.5182168317294,903.7877890559398 1627.2518091478175,757.0100514381422 1567.5770782922937,895.4340305574646" fill="#0b5a6a" stroke="#0b5a6a" stroke-width="0.5"></polygon><polygon id="SvgjsPolygon1192" points="1464.4957564849906,1073.591896366976 1560.224759143139,1039.5345298691811 1469.381689187961,935.174087977752" fill="#203c4b" stroke="#203c4b" stroke-width="0.5"></polygon><polygon id="SvgjsPolygon1193" points="330.295173301586,183.72848121914 245.48679579693658,288.13365460087124 432.881225734439,248.80612081288234" fill="#82cd77" stroke="#82cd77" stroke-width="0.5"></polygon><polygon id="SvgjsPolygon1194" points="251.11234607007108,395.7503216630363 128.50453810588047,481.6081189391142 234.63930420278382,515.2077886031801" fill="#29a584" stroke="#29a584" stroke-width="0.5"></polygon><polygon id="SvgjsPolygon1195" points="190.87127088078904,834.3113622996993 285.3458959840116,768.9752356313884 141.04639173723822,742.6236071098683" fill="#006774" stroke="#006774" stroke-width="0.5"></polygon><polygon id="SvgjsPolygon1196" points="258.1050836579569,624.2765852545677 285.3458959840116,768.9752356313884 356.2728691209415,675.711739148324" fill="#00797e" stroke="#00797e" stroke-width="0.5"></polygon><polygon id="SvgjsPolygon1197" points="1560.224759143139,1039.5345298691811 1682.5182168317294,903.7877890559398 1567.5770782922937,895.4340305574646" fill="#1b4859" stroke="#1b4859" stroke-width="0.5"></polygon><polygon id="SvgjsPolygon1198" points="1853.7758926150193,297.07854492576826 1764.4309101847225,175.56126175728184 1743.1856278524872,378.73671242436643" fill="#70c57b" stroke="#70c57b" stroke-width="0.5"></polygon><polygon id="SvgjsPolygon1199" points="1743.1856278524872,378.73671242436643 1764.4309101847225,175.56126175728184 1635.687853218918,262.9140012020758" fill="#75c77a" stroke="#75c77a" stroke-width="0.5"></polygon><polygon id="SvgjsPolygon1200" points="1658.2370742800213,116.04144617867394 1708.5671233490211,17.498146094023127 1529.2158419402342,28.10149087330919" fill="#d5e86a" stroke="#d5e86a" stroke-width="0.5"></polygon><polygon id="SvgjsPolygon1201" points="1857.3775266153818,648.339661641794 1826.289107717264,490.93531586430777 1766.353019921585,573.7799416513963" fill="#009084" stroke="#009084" stroke-width="0.5"></polygon><polygon id="SvgjsPolygon1202" points="1766.353019921585,573.7799416513963 1826.289107717264,490.93531586430777 1681.68501447538,476.9853518736645" fill="#109b85" stroke="#109b85" stroke-width="0.5"></polygon><polygon id="SvgjsPolygon1203" points="1857.3775266153818,648.339661641794 1783.2418203459313,722.8315976484228 1911.5664663840575,745.5654478787714" fill="#00767c" stroke="#00767c" stroke-width="0.5"></polygon><polygon id="SvgjsPolygon1204" points="1728.2399020635712,808.4340305775615 1783.2418203459313,722.8315976484228 1678.3989077145065,665.7342631016628" fill="#00717a" stroke="#00717a" stroke-width="0.5"></polygon><polygon id="SvgjsPolygon1205" points="486.139964049692,8.574824859287286 331.2422036332222,37.38386781006125 470.9540909596058,116.38208459040027" fill="#d5e86a" stroke="#d5e86a" stroke-width="0.5"></polygon><polygon id="SvgjsPolygon1206" points="330.295173301586,183.72848121914 134.3052653754586,197.5676338173234 245.48679579693658,288.13365460087124" fill="#89cf76" stroke="#89cf76" stroke-width="0.5"></polygon><polygon id="SvgjsPolygon1207" points="1764.4309101847225,175.56126175728184 1708.5671233490211,17.498146094023127 1658.2370742800213,116.04144617867394" fill="#bee16d" stroke="#bee16d" stroke-width="0.5"></polygon><polygon id="SvgjsPolygon1208" points="1529.2158419402342,28.10149087330919 1708.5671233490211,17.498146094023127 1243.5331575518967,22.601585737644626" fill="#e4eb69" stroke="#e4eb69" stroke-width="0.5"></polygon><polygon id="SvgjsPolygon1209" points="285.3458959840116,768.9752356313884 339.7483009628959,943.0817852266397 428.80074363663215,804.4246436286627" fill="#065c6c" stroke="#065c6c" stroke-width="0.5"></polygon><polygon id="SvgjsPolygon1210" points="480.3028148659304,987.2213496322554 359.9642997847329,1065.1638539680043 625.3478030599431,1061.4199036582368" fill="#213847" stroke="#213847" stroke-width="0.5"></polygon><polygon id="SvgjsPolygon1211" points="1907.8200964227321,381.62588301383335 1853.7758926150193,297.07854492576826 1743.1856278524872,378.73671242436643" fill="#55b980" stroke="#55b980" stroke-width="0.5"></polygon><polygon id="SvgjsPolygon1212" points="1764.4309101847225,175.56126175728184 1870.748440062466,40.045492991132676 1708.5671233490211,17.498146094023127" fill="#cae56c" stroke="#cae56c" stroke-width="0.5"></polygon><polygon id="SvgjsPolygon1213" points="1783.2418203459313,722.8315976484228 1857.3775266153818,648.339661641794 1766.353019921585,573.7799416513963" fill="#008181" stroke="#008181" stroke-width="0.5"></polygon><polygon id="SvgjsPolygon1214" points="1826.289107717264,490.93531586430777 1907.8200964227321,381.62588301383335 1743.1856278524872,378.73671242436643" fill="#3cae83" stroke="#3cae83" stroke-width="0.5"></polygon><polygon id="SvgjsPolygon1215" points="1848.6608383973205,830.1331342596897 1783.2418203459313,722.8315976484228 1728.2399020635712,808.4340305775615" fill="#006673" stroke="#006673" stroke-width="0.5"></polygon><polygon id="SvgjsPolygon1216" points="134.3052653754586,197.5676338173234 148.29795264967157,353.1671355680774 245.48679579693658,288.13365460087124" fill="#72c67a" stroke="#72c67a" stroke-width="0.5"></polygon><polygon id="SvgjsPolygon1217" points="245.48679579693658,288.13365460087124 148.29795264967157,353.1671355680774 251.11234607007108,395.7503216630363" fill="#58bb7f" stroke="#58bb7f" stroke-width="0.5"></polygon><polygon id="SvgjsPolygon1218" points="234.63930420278382,515.2077886031801 143.85745443093845,590.0865413937897 258.1050836579569,624.2765852545677" fill="#008f84" stroke="#008f84" stroke-width="0.5"></polygon><polygon id="SvgjsPolygon1219" points="285.3458959840116,768.9752356313884 190.87127088078904,834.3113622996993 339.7483009628959,943.0817852266397" fill="#0a5a6a" stroke="#0a5a6a" stroke-width="0.5"></polygon><polygon id="SvgjsPolygon1220" points="1560.224759143139,1039.5345298691811 1703.6944614147894,1016.6627976722656 1682.5182168317294,903.7877890559398" fill="#1f4151" stroke="#1f4151" stroke-width="0.5"></polygon><polygon id="SvgjsPolygon1221" points="1855.430885718137,932.3193186171128 1848.6608383973205,830.1331342596897 1728.2399020635712,808.4340305775615" fill="#0c5969" stroke="#0c5969" stroke-width="0.5"></polygon><polygon id="SvgjsPolygon1222" points="1796.396614230936,1056.0638774703023 1703.6944614147894,1016.6627976722656 1560.224759143139,1039.5345298691811" fill="#213847" stroke="#213847" stroke-width="0.5"></polygon><polygon id="SvgjsPolygon1223" points="128.50453810588047,481.6081189391142 143.85745443093845,590.0865413937897 234.63930420278382,515.2077886031801" fill="#059985" stroke="#059985" stroke-width="0.5"></polygon><polygon id="SvgjsPolygon1224" points="1857.3775266153818,648.339661641794 1907.8200964227321,381.62588301383335 1826.289107717264,490.93531586430777" fill="#149d85" stroke="#149d85" stroke-width="0.5"></polygon><polygon id="SvgjsPolygon1225" points="1853.7758926150193,297.07854492576826 1882.8147992492088,191.12702753841393 1764.4309101847225,175.56126175728184" fill="#8ad076" stroke="#8ad076" stroke-width="0.5"></polygon><polygon id="SvgjsPolygon1226" points="148.29795264967157,353.1671355680774 128.50453810588047,481.6081189391142 251.11234607007108,395.7503216630363" fill="#3faf83" stroke="#3faf83" stroke-width="0.5"></polygon><polygon id="SvgjsPolygon1227" points="191.7432921845727,1037.2727230323958 359.9642997847329,1065.1638539680043 339.7483009628959,943.0817852266397" fill="#203c4c" stroke="#203c4c" stroke-width="0.5"></polygon><polygon id="SvgjsPolygon1228" points="339.7483009628959,943.0817852266397 359.9642997847329,1065.1638539680043 480.3028148659304,987.2213496322554" fill="#1f3f4f" stroke="#1f3f4f" stroke-width="0.5"></polygon><polygon id="SvgjsPolygon1229" points="625.3478030599431,1061.4199036582368 359.9642997847329,1065.1638539680043 970.1247423622111,1076.231948810875" fill="#213341" stroke="#213341" stroke-width="0.5"></polygon><polygon id="SvgjsPolygon1230" points="331.2422036332222,37.38386781006125 197.86840886266236,94.9940173966615 330.295173301586,183.72848121914" fill="#bde16d" stroke="#bde16d" stroke-width="0.5"></polygon><polygon id="SvgjsPolygon1231" points="1907.8200964227321,381.62588301383335 1882.8147992492088,191.12702753841393 1853.7758926150193,297.07854492576826" fill="#6ec47b" stroke="#6ec47b" stroke-width="0.5"></polygon><polygon id="SvgjsPolygon1232" points="1855.430885718137,932.3193186171128 1728.2399020635712,808.4340305775615 1682.5182168317294,903.7877890559398" fill="#125465" stroke="#125465" stroke-width="0.5"></polygon><polygon id="SvgjsPolygon1233" points="1857.3775266153818,648.339661641794 1911.5664663840575,745.5654478787714 1907.8200964227321,381.62588301383335" fill="#008c84" stroke="#008c84" stroke-width="0.5"></polygon><polygon id="SvgjsPolygon1234" points="141.04639173723822,742.6236071098683 285.3458959840116,768.9752356313884 258.1050836579569,624.2765852545677" fill="#00757c" stroke="#00757c" stroke-width="0.5"></polygon><polygon id="SvgjsPolygon1235" points="54.28625564123416,643.023162315503 141.04639173723822,742.6236071098683 143.85745443093845,590.0865413937897" fill="#007f80" stroke="#007f80" stroke-width="0.5"></polygon><polygon id="SvgjsPolygon1236" points="143.85745443093845,590.0865413937897 141.04639173723822,742.6236071098683 258.1050836579569,624.2765852545677" fill="#008181" stroke="#008181" stroke-width="0.5"></polygon><polygon id="SvgjsPolygon1237" points="197.86840886266236,94.9940173966615 134.3052653754586,197.5676338173234 330.295173301586,183.72848121914" fill="#a5d971" stroke="#a5d971" stroke-width="0.5"></polygon><polygon id="SvgjsPolygon1238" points="30.820388328714458,454.17844517209915 54.28625564123416,643.023162315503 128.50453810588047,481.6081189391142" fill="#079985" stroke="#079985" stroke-width="0.5"></polygon><polygon id="SvgjsPolygon1239" points="1848.6608383973205,830.1331342596897 1911.5664663840575,745.5654478787714 1783.2418203459313,722.8315976484228" fill="#006a76" stroke="#006a76" stroke-width="0.5"></polygon><polygon id="SvgjsPolygon1240" points="1907.8200964227321,381.62588301383335 1870.748440062466,40.045492991132676 1882.8147992492088,191.12702753841393" fill="#91d274" stroke="#91d274" stroke-width="0.5"></polygon><polygon id="SvgjsPolygon1241" points="1882.8147992492088,191.12702753841393 1870.748440062466,40.045492991132676 1764.4309101847225,175.56126175728184" fill="#afdd6f" stroke="#afdd6f" stroke-width="0.5"></polygon><polygon id="SvgjsPolygon1242" points="1703.6944614147894,1016.6627976722656 1855.430885718137,932.3193186171128 1682.5182168317294,903.7877890559398" fill="#1c4758" stroke="#1c4758" stroke-width="0.5"></polygon><polygon id="SvgjsPolygon1243" points="1848.6608383973205,830.1331342596897 1855.430885718137,932.3193186171128 1911.5664663840575,745.5654478787714" fill="#055d6c" stroke="#055d6c" stroke-width="0.5"></polygon><polygon id="SvgjsPolygon1244" points="1464.4957564849906,1073.591896366976 1796.396614230936,1056.0638774703023 1560.224759143139,1039.5345298691811" fill="#213543" stroke="#213543" stroke-width="0.5"></polygon><polygon id="SvgjsPolygon1245" points="1703.6944614147894,1016.6627976722656 1796.396614230936,1056.0638774703023 1855.430885718137,932.3193186171128" fill="#203e4e" stroke="#203e4e" stroke-width="0.5"></polygon><polygon id="SvgjsPolygon1246" points="30.820388328714458,454.17844517209915 128.50453810588047,481.6081189391142 148.29795264967157,353.1671355680774" fill="#37ab83" stroke="#37ab83" stroke-width="0.5"></polygon><polygon id="SvgjsPolygon1247" points="128.50453810588047,481.6081189391142 54.28625564123416,643.023162315503 143.85745443093845,590.0865413937897" fill="#009084" stroke="#009084" stroke-width="0.5"></polygon><polygon id="SvgjsPolygon1248" points="10.56730246319205,817.3423313273695 147.2724591214406,934.945371114865 190.87127088078904,834.3113622996993" fill="#0e5868" stroke="#0e5868" stroke-width="0.5"></polygon><polygon id="SvgjsPolygon1249" points="21.839452957054863,347.3883787853113 30.820388328714458,454.17844517209915 148.29795264967157,353.1671355680774" fill="#49b481" stroke="#49b481" stroke-width="0.5"></polygon><polygon id="SvgjsPolygon1250" points="190.87127088078904,834.3113622996993 147.2724591214406,934.945371114865 339.7483009628959,943.0817852266397" fill="#165061" stroke="#165061" stroke-width="0.5"></polygon><polygon id="SvgjsPolygon1251" points="10.56730246319205,817.3423313273695 190.87127088078904,834.3113622996993 141.04639173723822,742.6236071098683" fill="#006472" stroke="#006472" stroke-width="0.5"></polygon><polygon id="SvgjsPolygon1252" points="31.745483408579148,187.6264628000195 21.839452957054863,347.3883787853113 134.3052653754586,197.5676338173234" fill="#81cc78" stroke="#81cc78" stroke-width="0.5"></polygon><polygon id="SvgjsPolygon1253" points="134.3052653754586,197.5676338173234 21.839452957054863,347.3883787853113 148.29795264967157,353.1671355680774" fill="#6ac37c" stroke="#6ac37c" stroke-width="0.5"></polygon><polygon id="SvgjsPolygon1254" points="147.2724591214406,934.945371114865 191.7432921845727,1037.2727230323958 339.7483009628959,943.0817852266397" fill="#1e4454" stroke="#1e4454" stroke-width="0.5"></polygon><polygon id="SvgjsPolygon1255" points="81.74415469051152,1.3628027457532141 31.745483408579148,187.6264628000195 134.3052653754586,197.5676338173234" fill="#b2de6f" stroke="#b2de6f" stroke-width="0.5"></polygon><polygon id="SvgjsPolygon1256" points="331.2422036332222,37.38386781006125 81.74415469051152,1.3628027457532141 197.86840886266236,94.9940173966615" fill="#d9e96a" stroke="#d9e96a" stroke-width="0.5"></polygon><polygon id="SvgjsPolygon1257" points="197.86840886266236,94.9940173966615 81.74415469051152,1.3628027457532141 134.3052653754586,197.5676338173234" fill="#c0e26d" stroke="#c0e26d" stroke-width="0.5"></polygon><polygon id="SvgjsPolygon1258" points="486.139964049692,8.574824859287286 81.74415469051152,1.3628027457532141 331.2422036332222,37.38386781006125" fill="#e7ec69" stroke="#e7ec69" stroke-width="0.5"></polygon><polygon id="SvgjsPolygon1259" points="591.2156592639337,0.7185758227785044 81.74415469051152,1.3628027457532141 486.139964049692,8.574824859287286" fill="#edee69" stroke="#edee69" stroke-width="0.5"></polygon><polygon id="SvgjsPolygon1260" points="1796.396614230936,1056.0638774703023 1898.9718960232995,1041.631949348494 1855.430885718137,932.3193186171128" fill="#203d4d" stroke="#203d4d" stroke-width="0.5"></polygon><polygon id="SvgjsPolygon1261" points="1855.430885718137,932.3193186171128 1898.9718960232995,1041.631949348494 1911.5664663840575,745.5654478787714" fill="#165061" stroke="#165061" stroke-width="0.5"></polygon><polygon id="SvgjsPolygon1262" points="30.820388328714458,454.17844517209915 10.56730246319205,817.3423313273695 54.28625564123416,643.023162315503" fill="#008382" stroke="#008382" stroke-width="0.5"></polygon><polygon id="SvgjsPolygon1263" points="54.28625564123416,643.023162315503 10.56730246319205,817.3423313273695 141.04639173723822,742.6236071098683" fill="#00717a" stroke="#00717a" stroke-width="0.5"></polygon><polygon id="SvgjsPolygon1264" points="147.2724591214406,934.945371114865 33.5243286966255,1067.0400121582438 191.7432921845727,1037.2727230323958" fill="#203c4c" stroke="#203c4c" stroke-width="0.5"></polygon><polygon id="SvgjsPolygon1265" points="21.839452957054863,347.3883787853113 10.56730246319205,817.3423313273695 30.820388328714458,454.17844517209915" fill="#009785" stroke="#009785" stroke-width="0.5"></polygon><polygon id="SvgjsPolygon1266" points="21.839452957054863,347.3883787853113 2.276732243763007,955.7365499416734 10.56730246319205,817.3423313273695" fill="#00767c" stroke="#00767c" stroke-width="0.5"></polygon><polygon id="SvgjsPolygon1267" points="10.56730246319205,817.3423313273695 2.276732243763007,955.7365499416734 147.2724591214406,934.945371114865" fill="#165061" stroke="#165061" stroke-width="0.5"></polygon><polygon id="SvgjsPolygon1268" points="2.276732243763007,955.7365499416734 33.5243286966255,1067.0400121582438 147.2724591214406,934.945371114865" fill="#1f4152" stroke="#1f4152" stroke-width="0.5"></polygon><polygon id="SvgjsPolygon1269" points="191.7432921845727,1037.2727230323958 33.5243286966255,1067.0400121582438 359.9642997847329,1065.1638539680043" fill="#213543" stroke="#213543" stroke-width="0.5"></polygon><polygon id="SvgjsPolygon1270" points="359.9642997847329,1065.1638539680043 33.5243286966255,1067.0400121582438 970.1247423622111,1076.231948810875" fill="#213340" stroke="#213340" stroke-width="0.5"></polygon></svg>